# xmcd CD database file
#
# Track frame offsets:
#	150
#	11440
#	22842
#	37880
#	51887
#	62987
#	81247
#	98510
#	109854
#	122977
#	138017
#	147960
#	158557
#	167655
#	181787
#	196522
#
# Disc length: 2754 seconds
#
# Revision: 0
# Processed by: cddbd v1.5.1PL0 Copyright (c) Steve Scherf et al.
# Submitted via: CDex 1.51
#
DISCID=be0ac010
DTITLE=Various Artist - Country Cream Vol 2 - Varios Artistas
DYEAR=1995
DGENRE=Country
TTITLE0=9.999.999 Tears-Razzy Bailey
TTITLE1=It Wasnt god Who Made-Kitty Wells
TTITLE2=One day at a time-George Hamilton IV
TTITLE3=Sylvie Marie-Inger Hordstrom e Rhinestone band
TTITLE4=Tom Dooley-Original Kingston Trio
TTITLE5=Waycross Georgia Blues-Alan Borders
TTITLE6=I dont know what Love is-Billie Daves
TTITLE7=Angel band-Porter Wagoner
TTITLE8=One kiss for old times sake-Ronnie Dove
TTITLE9=You sure have a way winthout words-David Speegle
TTITLE10=Blue Moon(of Kentucky)-Bill Monroe
TTITLE11=Blue eyes crying in the wind-Ace Cannon
TTITLE12=Hello Walls-Faron Young
TTITLE13=I dream of hillbilly heaven-Tex Ritter
TTITLE14=Thief of hearts-Joni Bishop
TTITLE15=A thing called love-Jimmy Dean
EXTD=YEAR: 1995
EXTT0=
EXTT1=
EXTT2=
EXTT3=
EXTT4=
EXTT5=
EXTT6=
EXTT7=
EXTT8=
EXTT9=
EXTT10=
EXTT11=
EXTT12=
EXTT13=
EXTT14=
EXTT15=
PLAYORDER=
